{
	"asset":{
		"generator":"Khronos glTF Blender I/O v4.3.47",
		"version":"2.0"
	},
	"scene":0,
	"scenes":[
		{
			"name":"Scene",
			"nodes":[
				0
			]
		}
	],
	"nodes":[
		{
			"mesh":0,
			"name":"silver Claw Ring_design"
		}
	],
	"meshes":[
		{
			"name":"silver Claw Ring_design",
			"primitives":[
				{
					"attributes":{
						"POSITION":0,
						"NORMAL":1
					},
					"indices":2
				}
			]
		}
	],
	"accessors":[
		{
			"bufferView":0,
			"componentType":5126,
			"count":322288,
			"max":[
				0.011221315711736679,
				0.0054296404123306274,
				0.012007649056613445
			],
			"min":[
				-0.011221318505704403,
				-0.005429640877991915,
				-0.010162457823753357
			],
			"type":"VEC3"
		},
		{
			"bufferView":1,
			"componentType":5126,
			"count":322288,
			"type":"VEC3"
		},
		{
			"bufferView":2,
			"componentType":5125,
			"count":336984,
			"type":"SCALAR"
		}
	],
	"bufferViews":[
		{
			"buffer":0,
			"byteLength":3867456,
			"byteOffset":0,
			"target":34962
		},
		{
			"buffer":0,
			"byteLength":3867456,
			"byteOffset":3867456,
			"target":34962
		},
		{
			"buffer":0,
			"byteLength":1347936,
			"byteOffset":7734912,
			"target":34963
		}
	],
	"buffers":[
		{
			"byteLength":9082848,
			"uri":"scene.bin"
		}
	]
}
