{
	"asset":{
		"generator":"Khronos glTF Blender I/O v4.3.47",
		"version":"2.0"
	},
	"scene":0,
	"scenes":[
		{
			"name":"Scene",
			"nodes":[
				0,
				1
			]
		}
	],
	"nodes":[
		{
			"mesh":0,
			"name":"thicker",
			"rotation":[
				0.656582772731781,
				-0.11524501442909241,
				-0.7380139231681824,
				0.10465789586305618
			],
			"scale":[
				0.7043471336364746,
				0.7043474316596985,
				0.7043471336364746
			],
			"translation":[
				-2.2104604244232178,
				-11.070695877075195,
				2.788529396057129
			]
		},
		{
			"mesh":1,
			"name":"silver Claw Ring_design",
			"rotation":[
				0.20129989087581635,
				-0.9778361916542053,
				0.002790453378111124,
				0.05750603973865509
			],
			"scale":[
				1000,
				1000,
				1000.0000610351562
			],
			"translation":[
				-2.912710189819336,
				6.434289932250977,
				-1.338470458984375
			]
		}
	],
	"meshes":[
		{
			"name":"thicker",
			"primitives":[
				{
					"attributes":{
						"POSITION":0,
						"NORMAL":1
					},
					"indices":2
				}
			]
		},
		{
			"name":"silver Claw Ring_design",
			"primitives":[
				{
					"attributes":{
						"POSITION":3,
						"NORMAL":4,
						"COLOR_0":5
					},
					"indices":6
				}
			]
		}
	],
	"accessors":[
		{
			"bufferView":0,
			"componentType":5126,
			"count":229869,
			"max":[
				14.838000297546387,
				9.583000183105469,
				14.303999900817871
			],
			"min":[
				-14.303000450134277,
				-9.583000183105469,
				-14.303999900817871
			],
			"type":"VEC3"
		},
		{
			"bufferView":1,
			"componentType":5126,
			"count":229869,
			"type":"VEC3"
		},
		{
			"bufferView":2,
			"componentType":5125,
			"count":1379196,
			"type":"SCALAR"
		},
		{
			"bufferView":3,
			"componentType":5126,
			"count":235451,
			"max":[
				0.011221315711736679,
				0.0054296404123306274,
				0.012007649056613445
			],
			"min":[
				-0.011221318505704403,
				-0.005429640877991915,
				-0.010162457823753357
			],
			"type":"VEC3"
		},
		{
			"bufferView":4,
			"componentType":5126,
			"count":235451,
			"type":"VEC3"
		},
		{
			"bufferView":5,
			"componentType":5123,
			"count":235451,
			"normalized":true,
			"type":"VEC4"
		},
		{
			"bufferView":6,
			"componentType":5125,
			"count":336984,
			"type":"SCALAR"
		}
	],
	"bufferViews":[
		{
			"buffer":0,
			"byteLength":2758428,
			"byteOffset":0,
			"target":34962
		},
		{
			"buffer":0,
			"byteLength":2758428,
			"byteOffset":2758428,
			"target":34962
		},
		{
			"buffer":0,
			"byteLength":5516784,
			"byteOffset":5516856,
			"target":34963
		},
		{
			"buffer":0,
			"byteLength":2825412,
			"byteOffset":11033640,
			"target":34962
		},
		{
			"buffer":0,
			"byteLength":2825412,
			"byteOffset":13859052,
			"target":34962
		},
		{
			"buffer":0,
			"byteLength":1883608,
			"byteOffset":16684464,
			"target":34962
		},
		{
			"buffer":0,
			"byteLength":1347936,
			"byteOffset":18568072,
			"target":34963
		}
	],
	"buffers":[
		{
			"byteLength":19916008,
			"uri":"scene.bin"
		}
	]
}
