{
	"asset":{
		"generator":"Khronos glTF Blender I/O v4.3.47",
		"version":"2.0"
	},
	"scene":0,
	"scenes":[
		{
			"name":"Scene",
			"nodes":[
				0,
				1
			]
		}
	],
	"nodes":[
		{
			"mesh":0,
			"name":"thicker",
			"rotation":[
				0.6772021651268005,
				0.01660730317234993,
				-0.7332515716552734,
				0.05885317176580429
			],
			"scale":[
				0.7043471336364746,
				0.7043473124504089,
				0.7043470740318298
			],
			"translation":[
				-2.2104604244232178,
				-11.070695877075195,
				2.788529396057129
			]
		},
		{
			"mesh":1,
			"name":"silver Claw Ring_design",
			"rotation":[
				-0.04132506251335144,
				-0.9974856972694397,
				0.01662425324320793,
				0.055121101438999176
			],
			"scale":[
				999.9999389648438,
				1000,
				1000.0000610351562
			],
			"translation":[
				-2.912710189819336,
				6.434289932250977,
				-1.338470458984375
			]
		}
	],
	"meshes":[
		{
			"name":"thicker",
			"primitives":[
				{
					"attributes":{
						"POSITION":0,
						"NORMAL":1
					},
					"indices":2
				}
			]
		},
		{
			"name":"silver Claw Ring_design",
			"primitives":[
				{
					"attributes":{
						"POSITION":3,
						"NORMAL":4
					},
					"indices":5
				}
			]
		}
	],
	"accessors":[
		{
			"bufferView":0,
			"componentType":5126,
			"count":229869,
			"max":[
				14.838000297546387,
				9.583000183105469,
				14.303999900817871
			],
			"min":[
				-14.303000450134277,
				-9.583000183105469,
				-14.303999900817871
			],
			"type":"VEC3"
		},
		{
			"bufferView":1,
			"componentType":5126,
			"count":229869,
			"type":"VEC3"
		},
		{
			"bufferView":2,
			"componentType":5125,
			"count":1379196,
			"type":"SCALAR"
		},
		{
			"bufferView":3,
			"componentType":5126,
			"count":322288,
			"max":[
				0.011221315711736679,
				0.0054296404123306274,
				0.012007649056613445
			],
			"min":[
				-0.011221318505704403,
				-0.005429640877991915,
				-0.010162457823753357
			],
			"type":"VEC3"
		},
		{
			"bufferView":4,
			"componentType":5126,
			"count":322288,
			"type":"VEC3"
		},
		{
			"bufferView":5,
			"componentType":5125,
			"count":336984,
			"type":"SCALAR"
		}
	],
	"bufferViews":[
		{
			"buffer":0,
			"byteLength":2758428,
			"byteOffset":0,
			"target":34962
		},
		{
			"buffer":0,
			"byteLength":2758428,
			"byteOffset":2758428,
			"target":34962
		},
		{
			"buffer":0,
			"byteLength":5516784,
			"byteOffset":5516856,
			"target":34963
		},
		{
			"buffer":0,
			"byteLength":3867456,
			"byteOffset":11033640,
			"target":34962
		},
		{
			"buffer":0,
			"byteLength":3867456,
			"byteOffset":14901096,
			"target":34962
		},
		{
			"buffer":0,
			"byteLength":1347936,
			"byteOffset":18768552,
			"target":34963
		}
	],
	"buffers":[
		{
			"byteLength":20116488,
			"uri":"scene.bin"
		}
	]
}
