{
	"asset":{
		"generator":"Khronos glTF Blender I/O v4.3.47",
		"version":"2.0"
	},
	"scene":0,
	"scenes":[
		{
			"name":"Scene",
			"nodes":[
				0
			]
		}
	],
	"nodes":[
		{
			"mesh":0,
			"name":"thicker",
			"rotation":[
				0.7071068286895752,
				0,
				0,
				0.7071068286895752
			]
		}
	],
	"meshes":[
		{
			"name":"thicker",
			"primitives":[
				{
					"attributes":{
						"POSITION":0,
						"NORMAL":1
					},
					"indices":2
				}
			]
		}
	],
	"accessors":[
		{
			"bufferView":0,
			"componentType":5126,
			"count":229866,
			"max":[
				14.838000297546387,
				9.583000183105469,
				14.303999900817871
			],
			"min":[
				-14.303000450134277,
				-9.583000183105469,
				-14.303999900817871
			],
			"type":"VEC3"
		},
		{
			"bufferView":1,
			"componentType":5126,
			"count":229866,
			"type":"VEC3"
		},
		{
			"bufferView":2,
			"componentType":5125,
			"count":1379196,
			"type":"SCALAR"
		}
	],
	"bufferViews":[
		{
			"buffer":0,
			"byteLength":2758392,
			"byteOffset":0,
			"target":34962
		},
		{
			"buffer":0,
			"byteLength":2758392,
			"byteOffset":2758392,
			"target":34962
		},
		{
			"buffer":0,
			"byteLength":5516784,
			"byteOffset":5516784,
			"target":34963
		}
	],
	"buffers":[
		{
			"byteLength":11033568,
			"uri":"scene.bin"
		}
	]
}
